<svg xmlns="http://www.w3.org/2000/svg" version="1.1" xmlns:xlink="http://www.w3.org/1999/xlink" xmlns:svgjs="http://svgjs.dev/svgjs" width="2000" height="1247" viewBox="0 0 2000 1247"><g transform="matrix(1,0,0,1,-1.2121212121212466,0.504858299595071)"><svg viewBox="0 0 396 247" data-background-color="#ffffff" preserveAspectRatio="xMidYMid meet" height="1247" width="2000" xmlns="http://www.w3.org/2000/svg" xmlns:xlink="http://www.w3.org/1999/xlink"><g id="tight-bounds" transform="matrix(1,0,0,1,0.2400000000000091,-0.09999999999999432)"><svg viewBox="0 0 395.52 247.2" height="247.2" width="395.52"><g><svg></svg></g><g><svg viewBox="0 0 395.52 247.2" height="247.2" width="395.52"><g transform="matrix(1,0,0,1,75.54432,99.73745477413934)"><svg viewBox="0 0 244.43135999999998 47.72509045172132" height="47.72509045172132" width="244.43135999999998"><g><svg viewBox="0 0 244.43135999999998 47.72509045172132" height="47.72509045172132" width="244.43135999999998"><g><svg viewBox="0 0 327.9923392468586 64.04032632321807" height="47.72509045172132" width="244.43135999999998"><g transform="matrix(1,0,0,1,83.56097924685864,0)"><svg viewBox="0 0 244.43135999999998 64.04032632321807" height="64.04032632321807" width="244.43135999999998"><g id="textblocktransform"><svg viewBox="0 0 244.43135999999998 64.04032632321807" height="64.04032632321807" width="244.43135999999998" id="textblock"><g><svg viewBox="0 0 244.43135999999998 64.04032632321807" height="64.04032632321807" width="244.43135999999998"><g transform="matrix(1,0,0,1,0,0)"><svg width="244.43135999999998" viewBox="3.25 -35.5 138.37 36.26" height="64.04032632321807" data-palette-color="#2a2c35"><path d="M10.25-13.99L10.25 0 3.25 0 3.25-35.01 10.25-35.01 10.25-21 24.24-21 24.24-35.01 31.25-35.01 31.25 0 24.24 0 24.24-13.99 10.25-13.99ZM72.04-17.36L72.04-17.36Q72.04-14.87 71.4-12.56 70.75-10.25 69.58-8.24 68.41-6.23 66.75-4.57 65.09-2.91 63.08-1.72 61.08-0.54 58.76 0.11 56.44 0.76 53.95 0.76L53.95 0.76Q51.46 0.76 49.16 0.11 46.85-0.54 44.83-1.72 42.82-2.91 41.16-4.57 39.5-6.23 38.32-8.24 37.13-10.25 36.48-12.56 35.84-14.87 35.84-17.36L35.84-17.36Q35.84-19.85 36.48-22.17 37.13-24.49 38.32-26.49 39.5-28.49 41.16-30.15 42.82-31.81 44.83-32.98 46.85-34.16 49.16-34.8 51.46-35.45 53.95-35.45L53.95-35.45Q56.44-35.45 58.76-34.8 61.08-34.16 63.08-32.98 65.09-31.81 66.75-30.15 68.41-28.49 69.58-26.49 70.75-24.49 71.4-22.17 72.04-19.85 72.04-17.36ZM65.09-17.36L65.09-17.36Q65.09-19.65 64.21-21.69 63.33-23.73 61.83-25.23 60.32-26.73 58.29-27.61 56.25-28.49 53.95-28.49L53.95-28.49Q51.63-28.49 49.61-27.61 47.58-26.73 46.07-25.23 44.55-23.73 43.67-21.69 42.8-19.65 42.8-17.36L42.8-17.36Q42.8-15.06 43.67-13.05 44.55-11.04 46.07-9.52 47.58-8.01 49.61-7.13 51.63-6.25 53.95-6.25L53.95-6.25Q56.25-6.25 58.29-7.13 60.32-8.01 61.83-9.52 63.33-11.04 64.21-13.05 65.09-15.06 65.09-17.36ZM111.37-25L111.37 0 104.39 0 104.39-25Q104.39-25.73 104.11-26.37 103.83-27 103.35-27.48 102.88-27.95 102.24-28.22 101.61-28.49 100.87-28.49L100.87-28.49Q100.14-28.49 99.51-28.22 98.87-27.95 98.4-27.48 97.92-27 97.65-26.37 97.38-25.73 97.38-25L97.38-25 97.38 0 90.38 0 90.38-25Q90.38-25.73 90.11-26.37 89.84-27 89.36-27.48 88.89-27.95 88.25-28.22 87.62-28.49 86.88-28.49L86.88-28.49Q86.15-28.49 85.52-28.22 84.88-27.95 84.41-27.48 83.93-27 83.66-26.37 83.39-25.73 83.39-25L83.39-25 83.39 0 76.39 0 76.39-25Q76.39-27.17 77.2-29.09 78.02-31.01 79.45-32.43 80.88-33.86 82.8-34.68 84.71-35.5 86.88-35.5L86.88-35.5Q88.84-35.5 90.64-34.8 92.45-34.11 93.89-32.79L93.89-32.79Q95.33-34.11 97.13-34.8 98.92-35.5 100.87-35.5L100.87-35.5Q103.05-35.5 104.96-34.68 106.88-33.86 108.31-32.43 109.74-31.01 110.55-29.09 111.37-27.17 111.37-25L111.37-25ZM141.62-7.01L141.62 0 117.62 0 117.62-35.01 141.62-35.01 141.62-28 124.63-28 124.63-21 136.13-21 136.13-13.99 124.63-13.99 124.63-7.01 141.62-7.01Z" opacity="1" transform="matrix(1,0,0,1,0,0)" fill="#2a2c35" class="wordmark-text-0" data-fill-palette-color="primary" id="text-0"></path></svg></g></svg></g></svg></g></svg></g><g transform="matrix(1,0,0,1,0,6.354081177789695)"><svg viewBox="0 0 68.44259516977861 51.33216396763868" height="51.33216396763868" width="68.44259516977861"><g><svg xmlns="http://www.w3.org/2000/svg" xmlns:xlink="http://www.w3.org/1999/xlink" version="1.1" x="0" y="0" viewBox="8.86399999999999 20.511 78.63700000000001 58.97800000000001" enable-background="new 0 0 100 100" xml:space="preserve" height="51.33216396763868" width="68.44259516977861" class="icon-icon-0" data-fill-palette-color="accent" id="icon-0"><g fill="#2a2c35" data-fill-palette-color="accent"><g fill="#2a2c35" data-fill-palette-color="accent"><path fill-rule="evenodd" clip-rule="evenodd" fill="#2a2c35" d="M81.602 44.102H14.762A5.898 5.898 0 0 0 14.762 55.898H81.602A5.898 5.898 0 0 0 81.602 44.102M81.602 67.693H14.762A5.898 5.898 0 0 0 14.762 79.489H81.602A5.898 5.898 0 0 0 81.602 67.693M14.763 32.307H81.603A5.898 5.898 0 0 0 81.603 20.511H14.763A5.898 5.898 0 0 0 14.763 32.307" data-fill-palette-color="accent"></path></g></g></svg></g></svg></g></svg></g></svg></g></svg></g><path d="M189.459 93.737L189.459 32.801 7.861 32.801 7.861 214.399 189.459 214.399 189.459 153.463 185.155 153.463 185.155 210.095 12.164 210.095 12.164 37.105 185.155 37.105 185.155 93.737Z" fill="#2a2c35" stroke="transparent" data-fill-palette-color="tertiary"></path></svg></g><defs></defs></svg><rect width="395.52" height="247.2" fill="none" stroke="none" visibility="hidden"></rect></g></svg></g></svg>